<?xml version="1.0" encoding="utf-8"?>
<!-- Generator: Adobe Illustrator 21.1.0, SVG Export Plug-In . SVG Version: 6.00 Build 0)  -->
<svg version="1.1" id="Слой_1" xmlns="http://www.w3.org/2000/svg" xmlns:xlink="http://www.w3.org/1999/xlink" x="0px" y="0px"
	 viewBox="0 0 440 440" style="enable-background:new 0 0 440 440;" xml:space="preserve">
<style type="text/css">
	.st0{fill:none;stroke:#B1ADAC;stroke-width:8;stroke-miterlimit:10;stroke-opacity:0;}
	.st1{fill:none;stroke:#B1ADAC;stroke-width:32;stroke-miterlimit:10;}
	.st2{fill:#B1ADAC;}
	.st3{fill:none;stroke:#B1ADAC;stroke-width:8;stroke-miterlimit:10;}
</style>
<path class="st0" d="M4,14.6C4,8.7,8.7,4,14.6,4h410.9c5.8,0,10.5,4.7,10.5,10.6v410.9c0,5.8-4.7,10.5-10.5,10.5H14.6
	C8.7,436,4,431.3,4,425.5"/>
<g>
	
		<rect x="213.4" y="59.9" transform="matrix(7.507322e-04 -1 1 7.507322e-04 -2.6749 437.2039)" class="st2" width="8" height="320"/>
</g>
<g>
	<polygon class="st2" points="59.2,223.3 48.5,219.8 215.7,137.4 219.3,144.5 	"/>
</g>
<path class="st0" d="M14.6,4h410.9c5.8,0,10.5,4.7,10.5,10.6v410.9c0,5.8-4.7,10.5-10.5,10.5H14.6C8.7,436,4,431.3,4,425.5V14.6
	C4,8.7,8.7,4,14.6,4z"/>
<g>
	<polygon class="st2" points="59.2,216.2 48.5,219.8 215.7,302.2 219.3,295 	"/>
</g>
</svg>
