<?xml version="1.0" encoding="utf-8"?>
<!-- Generator: Adobe Illustrator 21.1.0, SVG Export Plug-In . SVG Version: 6.00 Build 0)  -->
<svg version="1.1" id="Слой_1" xmlns="http://www.w3.org/2000/svg" xmlns:xlink="http://www.w3.org/1999/xlink" x="0px" y="0px"
	 viewBox="0 0 440 440" style="enable-background:new 0 0 440 440;" xml:space="preserve">
<style type="text/css">
	.st0{fill:none;stroke:#B1ADAC;stroke-width:8;stroke-miterlimit:10;stroke-opacity:0;}
	.st1{fill:none;stroke:#B1ADAC;stroke-width:32;stroke-miterlimit:10;}
	.st2{fill:none;stroke:#B1ADAC;stroke-width:8;stroke-miterlimit:10;}
</style>
<path class="st0" d="M4,14.6C4,8.7,8.7,4,14.6,4h410.9c5.8,0,10.5,4.7,10.5,10.6v410.9c0,5.8-4.7,10.5-10.5,10.5H14.6
	C8.7,436,4,431.3,4,425.5"/>
<path class="st0" d="M14.6,4h410.9c5.8,0,10.5,4.7,10.5,10.6v410.9c0,5.8-4.7,10.5-10.5,10.5H14.6C8.7,436,4,431.3,4,425.5V14.6
	C4,8.7,8.7,4,14.6,4z"/>
<path class="st1" d="M379,115"/>
<path class="st1" d="M59,115"/>
<path class="st1" d="M379,221"/>
<path class="st1" d="M59,221"/>
<path class="st1" d="M379,325"/>
<path class="st1" d="M59,325"/>
<path class="st2" d="M381,381.8"/>
<path class="st2" d="M59,60.2"/>
<path class="st2" d="M59,381.8"/>
<path class="st2" d="M381,60.2"/>
<path class="st2" d="M379,220.4c0,0.3-74,78.6-165.3,78.6S48.5,220.7,48.5,220.4c0-0.3,74-78.7,165.3-78.7S379,220.1,379,220.4z"/>
<circle class="st2" cx="213.8" cy="220.4" r="64.8"/>
<circle class="st2" cx="213.8" cy="220.4" r="14.1"/>
</svg>
