<?xml version="1.0" encoding="utf-8"?>
<!-- Generator: Adobe Illustrator 21.1.0, SVG Export Plug-In . SVG Version: 6.00 Build 0)  -->
<svg version="1.1" id="Слой_1" xmlns="http://www.w3.org/2000/svg" xmlns:xlink="http://www.w3.org/1999/xlink" x="0px" y="0px"
	 viewBox="0 0 256 256" style="enable-background:new 0 0 256 256;" xml:space="preserve">
<style type="text/css">
	.st0{fill:none;stroke:#B1ADAC;stroke-width:2;stroke-miterlimit:10;}
</style>
<polygon class="st0" points="152.9,44.2 155.8,37.6 163.6,36.7 170.7,37.6 173.6,44.2 172.9,126.5 177.1,126.5 177.5,79.2 181.5,75 
	192.7,75 196.9,79 196.9,85.7 196.7,151.8 194.6,199.7 191.3,227.6 185.3,237.2 165.3,245.2 125.1,245.2 101.6,237.1 86,216.5 
	71.8,188.6 59.4,139.8 60.1,128.6 69.7,123.9 75.9,124.6 80.2,134.9 83.9,146.7 93.4,170.1 98.6,179.1 100.4,178.2 100.4,141.9 
	100.4,105.2 100.2,47.3 104,41.3 111.1,40.1 117.6,41.3 121.3,46.2 121.5,126.5 125.6,126.5 125.4,35.2 125.5,20.4 128.5,15.4 
	137.2,15.4 146.7,15.4 149.3,20.4 149.3,126.5 152.9,126.5 "/>
</svg>
