<?xml version="1.0" encoding="utf-8"?>
<!-- Generator: Adobe Illustrator 21.1.0, SVG Export Plug-In . SVG Version: 6.00 Build 0)  -->
<svg version="1.1" id="Слой_1" xmlns="http://www.w3.org/2000/svg" xmlns:xlink="http://www.w3.org/1999/xlink" x="0px" y="0px"
	 viewBox="0 0 512 512" style="enable-background:new 0 0 512 512;" xml:space="preserve">
<style type="text/css">
	.st0{fill:none;stroke:#B1ADAC;stroke-width:16;stroke-miterlimit:10;}
	.st1{fill:#B1ADAC;stroke:#B1ADAC;stroke-width:16;stroke-miterlimit:10;}
</style>
<path class="st0" d="M205.7,371.4c0,0,35.3,118.2-32,124.6c-67.4,6.3-54.7-116.4-54.7-116.4s0,0,43.4-4.1S205.7,371.4,205.7,371.4z"
	/>
<path class="st0" d="M201.8,336.2L201.8,336.2l-43.4,4.1c-43.4,4.1-43.4,4.1-43.4,4.1l-0.1-0.7C104.9,283.9,49,151,70.7,51l0,0
	c0.6-2.8,1.9-5.5,3.9-8l0,0C99.1,11.7,156,6.3,185.9,32.5l0,0l0,0l3.4,10.1C221.6,137.8,196.2,276.3,201.8,336.2L201.8,336.2z"/>
<path class="st1" d="M349.6,375.5c43.4,4.1,43.4,4.1,43.4,4.1s12.7,122.7-54.7,116.4c-67.3-6.4-32-124.6-32-124.6
	S306.2,371.4,349.6,375.5z"/>
<path class="st0" d="M310.2,336.2c5.6-59.9-19.8-198.4,12.5-293.6l3.4-10.1l0,0l0,0C356,6.3,412.9,11.7,437.4,43l0,0
	c2,2.5,3.3,5.2,3.9,8l0,0c21.7,100-34.2,232.9-44.2,292.7l-0.1,0.7c0,0,0,0-43.4-4.1L310.2,336.2L310.2,336.2L310.2,336.2z"/>
</svg>
