<?xml version="1.0" encoding="utf-8"?>
<!-- Generator: Adobe Illustrator 21.1.0, SVG Export Plug-In . SVG Version: 6.00 Build 0)  -->
<svg version="1.1" id="Слой_1" xmlns="http://www.w3.org/2000/svg" xmlns:xlink="http://www.w3.org/1999/xlink" x="0px" y="0px"
	 viewBox="0 0 8 8" style="enable-background:new 0 0 8 8;" xml:space="preserve">
<style type="text/css">
	.st0{fill:none;stroke:#B1ADAC;stroke-width:0.25;stroke-miterlimit:10;}
</style>
<path class="st0" d="M3,5.8c0,0,0.5,1.8-0.5,1.9S1.7,5.9,1.7,5.9s0,0,0.7-0.1C3,5.8,3,5.8,3,5.8z"/>
<path class="st0" d="M2.9,5.2L2.9,5.2L2.3,5.3c-0.7,0-0.7,0-0.7,0l0,0c-0.2-0.9-1-2.9-0.7-4.5l0,0c0,0,0-0.1,0.1-0.1l0,0
	c0.4-0.5,1.2-0.6,1.7-0.2l0,0l0,0l0.1,0.2C3.2,2.2,2.9,4.3,2.9,5.2L2.9,5.2z"/>
<path class="st0" d="M5.2,5.8C5.8,6,5.8,6,5.8,6S5.7,7.9,4.7,7.6c-1-0.3-0.1-2-0.1-2S4.5,5.6,5.2,5.8z"/>
<path class="st0" d="M4.7,5.1C5,4.2,5,2.1,5.8,0.7l0.1-0.2l0,0l0,0c0.6-0.3,1.3,0,1.6,0.5l0,0l0.1,0.1l0,0c0,1.5-1.2,3.4-1.6,4.3
	l0,0c0,0,0,0-0.7-0.2L4.7,5.1L4.7,5.1L4.7,5.1z"/>
</svg>
