<svg id="Слой_1" data-name="Слой 1" xmlns="http://www.w3.org/2000/svg" xmlns:xlink="http://www.w3.org/1999/xlink" width="191.09819" height="140.52074" viewBox="0 0 191.09819 140.52074">
  <defs>
    <style>
      .cls-1 {
        fill: url(#Безымянный_градиент_15);
      }

      .cls-2 {
        fill: url(#Безымянный_градиент_15-2);
      }

      .cls-3 {
        fill: url(#Безымянный_градиент_15-3);
      }

      .cls-4 {
        fill: url(#Безымянный_градиент_15-4);
      }

      .cls-5 {
        fill: url(#Безымянный_градиент_15-5);
      }

      .cls-6 {
        fill: url(#Безымянный_градиент_15-6);
      }

      .cls-7 {
        fill: url(#Безымянный_градиент_15-7);
      }

      .cls-8 {
        fill: url(#Безымянный_градиент_15-8);
      }

      .cls-9 {
        fill: url(#Безымянный_градиент_15-9);
      }

      .cls-10 {
        fill: url(#Безымянный_градиент_15-10);
      }

      .cls-11 {
        fill: url(#Безымянный_градиент_15-11);
      }

      .cls-12 {
        fill: url(#Безымянный_градиент_15-12);
      }

      .cls-13 {
        fill: url(#Безымянный_градиент_15-13);
      }

      .cls-14 {
        fill: url(#Безымянный_градиент_15-14);
      }

      .cls-15 {
        fill: url(#Безымянный_градиент_15-15);
      }

      .cls-16 {
        fill: url(#Безымянный_градиент_15-16);
      }

      .cls-17 {
        fill: url(#Безымянный_градиент_15-17);
      }

      .cls-18 {
        fill: url(#Безымянный_градиент_15-18);
      }

      .cls-19 {
        fill: url(#Безымянный_градиент_15-19);
      }

      .cls-20 {
        fill: url(#Безымянный_градиент_15-20);
      }

      .cls-21 {
        fill: url(#Безымянный_градиент_15-21);
      }

      .cls-22 {
        fill: url(#Безымянный_градиент_15-22);
      }

      .cls-23 {
        fill: url(#Безымянный_градиент_15-23);
      }

      .cls-24 {
        fill: url(#Безымянный_градиент_15-24);
      }

      .cls-25 {
        fill: url(#Безымянный_градиент_15-25);
      }

      .cls-26 {
        fill: url(#Безымянный_градиент_15-26);
      }

      .cls-27 {
        fill: url(#Безымянный_градиент_15-27);
      }

      .cls-28 {
        fill: url(#Безымянный_градиент_15-28);
      }

      .cls-29 {
        fill: url(#Безымянный_градиент_15-29);
      }

      .cls-30 {
        fill: url(#Безымянный_градиент_15-30);
      }

      .cls-31 {
        fill: url(#Безымянный_градиент_15-31);
      }

      .cls-32 {
        fill: url(#Безымянный_градиент_15-32);
      }

      .cls-33 {
        fill: url(#Безымянный_градиент_15-33);
      }

      .cls-34 {
        fill: url(#Безымянный_градиент_15-34);
      }

      .cls-35 {
        fill: url(#Безымянный_градиент_15-35);
      }

      .cls-36 {
        fill: url(#Безымянный_градиент_15-36);
      }

      .cls-37 {
        fill: url(#Безымянный_градиент_15-37);
      }

      .cls-38 {
        fill: url(#Безымянный_градиент_15-38);
      }

      .cls-39 {
        fill: url(#Безымянный_градиент_15-39);
      }

      .cls-40 {
        fill: url(#Безымянный_градиент_15-40);
      }

      .cls-41 {
        fill: url(#Безымянный_градиент_15-41);
      }

      .cls-42 {
        fill: url(#Безымянный_градиент_15-42);
      }

      .cls-43 {
        fill: url(#Безымянный_градиент_15-43);
      }
    </style>
    <linearGradient id="Безымянный_градиент_15" data-name="Безымянный градиент 15" x1="81.35114" y1="-37.65182" x2="94.71629" y2="46.83505" gradientUnits="userSpaceOnUse">
      <stop offset="0" stop-color="#fff" stop-opacity="0"/>
      <stop offset="1" stop-color="#b1adac"/>
    </linearGradient>
    <linearGradient id="Безымянный_градиент_15-2" x1="76.69521" y1="-36.91529" x2="90.06036" y2="47.57158" xlink:href="#Безымянный_градиент_15"/>
    <linearGradient id="Безымянный_градиент_15-3" x1="10.21705" y1="-26.39897" x2="23.58221" y2="58.0879" xlink:href="#Безымянный_градиент_15"/>
    <linearGradient id="Безымянный_градиент_15-4" x1="10.2118" y1="-26.39814" x2="23.57695" y2="58.08873" xlink:href="#Безымянный_градиент_15"/>
    <linearGradient id="Безымянный_градиент_15-5" x1="55.88052" y1="-33.62257" x2="69.24567" y2="50.8643" xlink:href="#Безымянный_градиент_15"/>
    <linearGradient id="Безымянный_градиент_15-6" x1="55.87561" y1="-33.6218" x2="69.24076" y2="50.86508" xlink:href="#Безымянный_градиент_15"/>
    <linearGradient id="Безымянный_градиент_15-7" x1="106.1932" y1="-41.58164" x2="119.55836" y2="42.90523" xlink:href="#Безымянный_градиент_15"/>
    <linearGradient id="Безымянный_градиент_15-8" x1="106.19315" y1="-41.58163" x2="119.55831" y2="42.90524" xlink:href="#Безымянный_градиент_15"/>
    <linearGradient id="Безымянный_градиент_15-9" x1="144.91678" y1="-47.70741" x2="158.28193" y2="36.77947" xlink:href="#Безымянный_градиент_15"/>
    <linearGradient id="Безымянный_градиент_15-10" x1="144.91674" y1="-47.7074" x2="158.2819" y2="36.77947" xlink:href="#Безымянный_градиент_15"/>
    <linearGradient id="Безымянный_градиент_15-11" x1="84.63844" y1="-38.17185" x2="98.00359" y2="46.31503" xlink:href="#Безымянный_градиент_15"/>
    <linearGradient id="Безымянный_градиент_15-12" x1="83.63205" y1="-38.01264" x2="96.9972" y2="46.47423" xlink:href="#Безымянный_градиент_15"/>
    <linearGradient id="Безымянный_градиент_15-13" x1="104.35986" y1="-41.29162" x2="117.72501" y2="43.19525" xlink:href="#Безымянный_градиент_15"/>
    <linearGradient id="Безымянный_градиент_15-14" x1="103.35216" y1="-41.13221" x2="116.71731" y2="43.35466" xlink:href="#Безымянный_градиент_15"/>
    <linearGradient id="Безымянный_градиент_15-15" x1="124.08068" y1="-44.4113" x2="137.44583" y2="40.07557" xlink:href="#Безымянный_градиент_15"/>
    <linearGradient id="Безымянный_градиент_15-16" x1="123.07429" y1="-44.2521" x2="136.43944" y2="40.23478" xlink:href="#Безымянный_градиент_15"/>
    <linearGradient id="Безымянный_градиент_15-17" x1="143.8021" y1="-47.53107" x2="157.16725" y2="36.9558" xlink:href="#Безымянный_градиент_15"/>
    <linearGradient id="Безымянный_градиент_15-18" x1="142.7944" y1="-47.37166" x2="156.15955" y2="37.11521" xlink:href="#Безымянный_градиент_15"/>
    <linearGradient id="Безымянный_градиент_15-19" x1="62.90109" y1="-34.73317" x2="76.26625" y2="49.7537" xlink:href="#Безымянный_градиент_15"/>
    <linearGradient id="Безымянный_градиент_15-20" x1="61.8947" y1="-34.57397" x2="75.25986" y2="49.9129" xlink:href="#Безымянный_градиент_15"/>
    <linearGradient id="Безымянный_градиент_15-21" x1="82.62251" y1="-37.85294" x2="95.98767" y2="46.63393" xlink:href="#Безымянный_градиент_15"/>
    <linearGradient id="Безымянный_градиент_15-22" x1="81.61481" y1="-37.69353" x2="94.97997" y2="46.79334" xlink:href="#Безымянный_градиент_15"/>
    <linearGradient id="Безымянный_градиент_15-23" x1="102.34333" y1="-40.97262" x2="115.70849" y2="43.51425" xlink:href="#Безымянный_градиент_15"/>
    <linearGradient id="Безымянный_градиент_15-24" x1="101.33694" y1="-40.81342" x2="114.7021" y2="43.67345" xlink:href="#Безымянный_градиент_15"/>
    <linearGradient id="Безымянный_градиент_15-25" x1="122.06475" y1="-44.09239" x2="135.42991" y2="40.39448" xlink:href="#Безымянный_градиент_15"/>
    <linearGradient id="Безымянный_градиент_15-26" x1="121.05705" y1="-43.93298" x2="134.42221" y2="40.55389" xlink:href="#Безымянный_градиент_15"/>
    <linearGradient id="Безымянный_градиент_15-27" x1="41.16416" y1="-31.29456" x2="54.52931" y2="53.19231" xlink:href="#Безымянный_градиент_15"/>
    <linearGradient id="Безымянный_градиент_15-28" x1="40.15777" y1="-31.13536" x2="53.52292" y2="53.35152" xlink:href="#Безымянный_градиент_15"/>
    <linearGradient id="Безымянный_градиент_15-29" x1="60.88558" y1="-34.41433" x2="74.25073" y2="50.07254" xlink:href="#Безымянный_градиент_15"/>
    <linearGradient id="Безымянный_градиент_15-30" x1="59.87788" y1="-34.25492" x2="73.24303" y2="50.23195" xlink:href="#Безымянный_градиент_15"/>
    <linearGradient id="Безымянный_градиент_15-31" x1="80.6064" y1="-37.53401" x2="93.97155" y2="46.95286" xlink:href="#Безымянный_градиент_15"/>
    <linearGradient id="Безымянный_градиент_15-32" x1="79.60001" y1="-37.37481" x2="92.96516" y2="47.11207" xlink:href="#Безымянный_градиент_15"/>
    <linearGradient id="Безымянный_градиент_15-33" x1="100.32782" y1="-40.65378" x2="113.69297" y2="43.83309" xlink:href="#Безымянный_градиент_15"/>
    <linearGradient id="Безымянный_градиент_15-34" x1="99.32012" y1="-40.49437" x2="112.68527" y2="43.9925" xlink:href="#Безымянный_градиент_15"/>
    <linearGradient id="Безымянный_градиент_15-35" x1="19.42681" y1="-27.85588" x2="32.79197" y2="56.63099" xlink:href="#Безымянный_градиент_15"/>
    <linearGradient id="Безымянный_градиент_15-36" x1="18.42042" y1="-27.69668" x2="31.78558" y2="56.79019" xlink:href="#Безымянный_градиент_15"/>
    <linearGradient id="Безымянный_градиент_15-37" x1="39.14823" y1="-30.97566" x2="52.51339" y2="53.51122" xlink:href="#Безымянный_градиент_15"/>
    <linearGradient id="Безымянный_градиент_15-38" x1="38.14053" y1="-30.81625" x2="51.50569" y2="53.67063" xlink:href="#Безымянный_градиент_15"/>
    <linearGradient id="Безымянный_градиент_15-39" x1="58.86905" y1="-34.09534" x2="72.23421" y2="50.39154" xlink:href="#Безымянный_градиент_15"/>
    <linearGradient id="Безымянный_градиент_15-40" x1="57.86266" y1="-33.93613" x2="71.22782" y2="50.55074" xlink:href="#Безымянный_градиент_15"/>
    <linearGradient id="Безымянный_градиент_15-41" x1="78.59047" y1="-37.21511" x2="91.95563" y2="47.27177" xlink:href="#Безымянный_градиент_15"/>
    <linearGradient id="Безымянный_градиент_15-42" x1="77.58277" y1="-37.0557" x2="90.94793" y2="47.43118" xlink:href="#Безымянный_градиент_15"/>
    <linearGradient id="Безымянный_градиент_15-43" x1="81.02779" y1="-37.60067" x2="94.39295" y2="46.8862" xlink:href="#Безымянный_градиент_15"/>
  </defs>
  <title>ChessBoardTransparent-01</title>
  <path class="cls-1" d="M95.47653,90.04493a5.9969,5.9969,0,0,1-1.51221-.19482L9.34225,64.40235a5.98331,5.98331,0,0,1-1.563-10.9126L88.20651,2.584a6.01875,6.01875,0,0,1,4.59082-.665l86.8374,24.51611a5.98374,5.98374,0,0,1,1.51611,10.94775L98.51266,89.21045A5.9739,5.9739,0,0,1,95.47653,90.04493ZM88.72653,3.438,8.30465,54.34034a4.98373,4.98373,0,0,0,1.30762,9.09912L94.23434,88.88721a4.93982,4.93982,0,0,0,3.75928-.53174L180.6318,36.52784a4.98385,4.98385,0,0,0-1.25879-9.12793L92.5361,2.88379A5.01445,5.01445,0,0,0,88.72653,3.438Z"/>
  <path class="cls-2" d="M100.7695,138.0293a34.744,34.744,0,0,1-9.147-1.23535L73.04977,131.582c-1.042-.34619-2.08789-.66064-3.13086-.94043L50.208,125.35254c-1.07568-.34912-2.26562-.6875-3.5249-1.0459-3.42871-.97559-7.31494-2.08105-9.94141-3.71191l-3.55176-2.13916a38.1296,38.1296,0,0,0-15.63525-5.00977l-4.69385-.63672c-6.93115-.76074-10.93994-7.63623-10.8042-13.84229L4.88522,59.46a.49435.49435,0,0,1,.53369-.46338.4994.4994,0,0,1,.46338.53369L3.05514,99.01368c-.12451,5.731,3.55371,12.103,9.92773,12.80273l4.69385.63672a39.09756,39.09756,0,0,1,16.03467,5.14941l3.55176,2.13916c2.51318,1.56055,6.32764,2.64551,9.69336,3.603,1.269.36084,2.46729.70215,3.53564,1.04932l19.686,5.28174c1.062.28516,2.12646.605,3.16455.9502l18.54688,5.2041a32.15609,32.15609,0,0,0,20.63135-1.06885c9.57031-3.94971,9.57031-3.94971,13.7207-8.02686.51074-.502,1.0835-1.06445,1.74268-1.70215l.09521-.07227,7.97949-4.63184c6.72949-1.36768,13.002-6.91309,19.06738-12.27539a96.64041,96.64041,0,0,1,9.47217-7.71777l4.41455-3.58154,1.74414-1.60986,7.80176-5.88623,4.40137-3.91211a16.33891,16.33891,0,0,0,5.3457-14.46,254.4492,254.4492,0,0,1-4.87744-33.89941l-.28613-3.78564a.5.5,0,1,1,.99707-.0752l.28613,3.78564a253.87879,253.87879,0,0,0,4.86475,33.80225,17.35045,17.35045,0,0,1-5.666,15.38037l-4.43213,3.9375-7.79492,5.87988L169.667,97.50928l-4.47363,3.62842a96.23794,96.23794,0,0,0-9.4043,7.66406c-6.14062,5.42871-12.48926,11.0415-19.44922,12.48975L128.6362,125.793c-.63867.61816-1.1958,1.16553-1.69385,1.65479-4.28955,4.21387-4.28955,4.21387-13.99268,8.21875A31.93573,31.93573,0,0,1,100.7695,138.0293Z"/>
  <g>
    <path class="cls-3" d="M25.75839,114.60553l2.81756-1.91481c5.0684-3.46474,4.55528-10.12739,6.32666-16.00577l.83816-4.49865-.71529,15.338q-.09654,1.20066-.28606,2.39111l-.18519,8.79876"/>
    <path class="cls-4" d="M34.55416,119.21436h-.01074a.50015.50015,0,0,1-.48926-.51074l.18506-8.79883c.12939-.8418.22412-1.6333.2876-2.42041l.4209-9.02393c-.26807,1.13818-.479,2.27881-.68457,3.39453-.8208,4.4458-1.59619,8.645-5.40479,11.24854L26.039,115.019a.49987.49987,0,0,1-.56152-.82715l2.81787-1.91455c3.46387-2.36816,4.20215-6.36865,4.98438-10.604A47.83874,47.83874,0,0,1,34.42428,96.541l.82471-4.4458.99121.11475-.71533,15.33789c-.06641.82959-.16455,1.64746-.292,2.44629l-.17871,8.731A.5.5,0,0,1,34.55416,119.21436Z"/>
  </g>
  <g>
    <path class="cls-5" d="M73.18521,131.10073l4.64294,1.26744c4.88121-5.35,5.80064-10.796,6.85846-17.96049l1.62418-11.00041-.813,19.723q.07447,1.30485.26386,2.59931l1.74826,9.28153"/>
    <path class="cls-6" d="M87.50924,135.51124a.4998.4998,0,0,1-.49072-.40723l-1.748-9.28174c-.13135-.88965-.22168-1.7793-.272-2.66309l.42383-10.312-.24121,1.63379c-.999,6.76611-1.86133,12.61035-6.98389,18.22412l-.20605.22607-4.938-1.34814a.50011.50011,0,1,1,.26367-.96484l4.3457,1.18652c4.73633-5.32178,5.56787-10.958,6.5293-17.47021L85.81637,103.334l.99414.09375L85.997,123.15088c.04883.80566.13623,1.66553.25928,2.50586l1.74463,9.26172a.49976.49976,0,0,1-.39844.584A.50643.50643,0,0,1,87.50924,135.51124Z"/>
  </g>
  <g>
    <path class="cls-7" d="M128.332,125.39184l.75761-12.38726c.107-1.64894.74175-4.40712.75332-6.05949l1.48829-15.059.57007,12.46365a77.01749,77.01749,0,0,0,3.04,12.892l1.21747,3.57665"/>
    <path class="cls-8" d="M128.33249,125.89161l-.03125-.001a.49965.49965,0,0,1-.46826-.52979l.75781-12.38721c.04883-.75.19727-1.687.35449-2.67871a25.71834,25.71834,0,0,0,.39746-3.353l1.49072-15.105.99707.02637.57031,12.46338c.08154.41846.17041.92725.26367,1.458a67.46625,67.46625,0,0,0,2.74854,11.291l1.21875,3.58154a.49983.49983,0,0,1-.94629.32227l-1.21729-3.57666a68.2969,68.2969,0,0,1-2.78857-11.4458c-.09277-.52783-.18164-1.03369-.27-1.51709l-.25977-5.63428-.80957,8.189a26.05986,26.05986,0,0,1-.40723,3.457c-.15381.96826-.29883,1.88281-.34424,2.585l-.75781,12.38574A.49974.49974,0,0,1,128.33249,125.89161Z"/>
  </g>
  <g>
    <path class="cls-9" d="M164.87841,100.74974l.81215-8.663q.33726-3.59739.32092-7.21486l-.04512-9.86349,1.80186,9.93951a40.51212,40.51212,0,0,0,1.74436,6.49393l1.58335,4.06936"/>
    <path class="cls-10" d="M164.87887,101.24952c-.01562,0-.03125-.00049-.04736-.002a.50051.50051,0,0,1-.45117-.54492l.812-8.6626c.22266-2.36914.33008-4.78027.31934-7.16553l-.04541-9.86377.99219-.0918,1.80176,9.93945a40.1257,40.1257,0,0,0,1.72314,6.41406l1.57861,4.05762a.4998.4998,0,0,1-.93164.3623l-1.5835-4.06934a41.23212,41.23212,0,0,1-1.771-6.58594l-.7832-4.32227.019,4.15479c.01074,2.418-.09814,4.8623-.32324,7.26416l-.812,8.6626A.50027.50027,0,0,1,164.87887,101.24952Z"/>
  </g>
  <polygon class="cls-11" points="92.672 16.415 82.158 13.313 92.198 6.904 102.886 10.018 92.672 16.415"/>
  <polygon class="cls-12" points="93.144 25.925 82.631 22.824 92.671 16.415 103.359 19.528 93.144 25.925"/>
  <polygon class="cls-13" points="113.87 22.632 103.357 19.531 113.396 13.122 124.085 16.235 113.87 22.632"/>
  <polygon class="cls-14" points="114.342 32.143 103.829 29.042 113.868 22.632 124.556 25.746 114.342 32.143"/>
  <polygon class="cls-15" points="135.068 28.849 124.555 25.747 134.594 19.338 145.282 22.452 135.068 28.849"/>
  <polygon class="cls-16" points="135.541 38.359 125.028 35.258 135.067 28.849 145.755 31.962 135.541 38.359"/>
  <polygon class="cls-17" points="156.266 35.066 145.753 31.965 155.793 25.556 166.481 28.669 156.266 35.066"/>
  <polygon class="cls-18" points="156.738 44.577 146.225 41.475 156.264 35.066 166.953 38.18 156.738 44.577"/>
  <polygon class="cls-19" points="72.416 29.222 61.903 26.121 71.943 19.712 82.631 22.825 72.416 29.222"/>
  <polygon class="cls-20" points="72.889 38.733 62.376 35.631 72.416 29.222 83.104 32.336 72.889 38.733"/>
  <polygon class="cls-21" points="93.615 35.44 83.102 32.338 93.141 25.929 103.829 29.043 93.615 35.44"/>
  <polygon class="cls-22" points="94.086 44.95 83.573 41.849 93.613 35.44 104.301 38.553 94.086 44.95"/>
  <polygon class="cls-23" points="114.812 41.656 104.299 38.554 114.339 32.145 125.027 35.259 114.812 41.656"/>
  <polygon class="cls-24" points="115.285 51.166 104.772 48.065 114.812 41.656 125.5 44.769 115.285 51.166"/>
  <polygon class="cls-25" points="136.011 47.873 125.498 44.772 135.537 38.363 146.226 41.477 136.011 47.873"/>
  <polygon class="cls-26" points="136.483 57.384 125.969 54.283 136.009 47.873 146.697 50.987 136.483 57.384"/>
  <polygon class="cls-27" points="52.161 42.029 41.648 38.927 51.688 32.518 62.376 35.632 52.161 42.029"/>
  <polygon class="cls-28" points="52.634 51.539 42.121 48.438 52.161 42.029 62.849 45.142 52.634 51.539"/>
  <polygon class="cls-29" points="73.36 48.246 62.847 45.145 72.886 38.736 83.574 41.849 73.36 48.246"/>
  <polygon class="cls-30" points="73.831 57.757 63.318 54.656 73.358 48.246 84.046 51.36 73.831 57.757"/>
  <polygon class="cls-31" points="94.557 54.463 84.044 51.361 94.084 44.952 104.772 48.066 94.557 54.463"/>
  <polygon class="cls-32" points="95.03 63.973 84.517 60.872 94.557 54.463 105.245 57.576 95.03 63.973"/>
  <polygon class="cls-33" points="115.756 60.68 105.243 57.579 115.282 51.17 125.971 54.283 115.756 60.68"/>
  <polygon class="cls-34" points="116.228 70.191 105.714 67.089 115.754 60.68 126.442 63.794 116.228 70.191"/>
  <polygon class="cls-35" points="31.906 54.836 21.393 51.735 31.432 45.325 42.121 48.439 31.906 54.836"/>
  <polygon class="cls-36" points="32.379 64.347 21.866 61.245 31.905 54.836 42.594 57.95 32.379 64.347"/>
  <polygon class="cls-37" points="53.104 61.054 42.591 57.952 52.631 51.543 63.319 54.657 53.104 61.054"/>
  <polygon class="cls-38" points="53.576 70.564 43.063 67.463 53.102 61.054 63.791 64.167 53.576 70.564"/>
  <polygon class="cls-39" points="74.302 67.27 63.789 64.168 73.829 57.759 84.517 60.873 74.302 67.27"/>
  <polygon class="cls-40" points="74.775 76.78 64.262 73.679 74.301 67.27 84.99 70.383 74.775 76.78"/>
  <polygon class="cls-41" points="95.501 73.487 84.988 70.386 95.027 63.977 105.715 67.09 95.501 73.487"/>
  <polygon class="cls-42" points="95.972 82.998 85.459 79.897 95.499 73.487 106.187 76.601 95.972 82.998"/>
  <path class="cls-43" d="M96.04831,83.54151,9.97848,58.3003,92.12155,6.36084l86.07373,25.2417ZM12.38278,57.96338,95.896,82.45459l79.895-50.51514L92.27389,7.44776Z"/>
</svg>
