<?xml version="1.0" encoding="utf-8"?>
<!-- Generator: Adobe Illustrator 21.1.0, SVG Export Plug-In . SVG Version: 6.00 Build 0)  -->
<svg version="1.1" id="Слой_1" xmlns="http://www.w3.org/2000/svg" xmlns:xlink="http://www.w3.org/1999/xlink" x="0px" y="0px"
	 viewBox="0 0 187 133.4" style="enable-background:new 0 0 187 133.4;" xml:space="preserve">
<style type="text/css">
	.st0{fill:#C1B9B9;stroke:#231F20;stroke-miterlimit:10;}
	.st1{fill:none;stroke:#231F20;stroke-linecap:round;stroke-miterlimit:10;}
	.st2{fill:#A8A7A7;}
	.st3{fill:#C67B22;stroke:#231F20;stroke-miterlimit:10;}
	.st4{fill:#231F20;stroke:#231F20;stroke-linecap:round;stroke-miterlimit:10;}
	.st5{fill:#231F20;}
	.st6{fill:none;stroke:#231F20;stroke-miterlimit:10;}
</style>
<path class="st0" d="M5.5,53.8l-0.6,2.9L2.5,96.3c-0.3,5.1,2.9,9.8,7.7,11.5l0,0c3.3,1.7,7,2.5,10.7,2.5h0c7.6,0,14.9,2.2,21.2,6.4
	l0,0l30.2,9.5c15.5,4.9,32.3,2.6,45.9-6.3l0,0l0,0c6.4-5.7,13.8-10.1,21.8-12.9l0,0c5.1-1.8,9.9-4.4,14.3-7.6l12.8-9.5l11.5-7
	c3.9-2.4,6.2-6.8,6-11.4v0c-0.2-3.1-0.6-6.3-1.3-9.3l-0.8-3.4c-1-3.9-1.7-7.9-2.3-11.9l-2.3-16.3l-0.5,1.4L98,78.9
	c-0.6,0.4-1.3,0.4-2,0.3L7.7,55.7L6.4,55L5.5,53.8z"/>
<g>
	<g>
	</g>
	<g>
	</g>
	<g>
	</g>
	<g>
	</g>
	<g>
	</g>
	<g>
	</g>
	<g>
	</g>
	<g>
	</g>
	<g>
	</g>
	<g>
	</g>
	<g>
	</g>
	<g>
	</g>
	<g>
	</g>
	<g>
	</g>
	<g>
	</g>
	<g>
	</g>
	<g>
	</g>
	<g>
	</g>
	<g>
	</g>
	<g>
	</g>
	<g>
	</g>
	<g>
	</g>
	<g>
	</g>
	<g>
	</g>
	<g>
	</g>
	<g>
	</g>
	<g>
	</g>
	<g>
	</g>
	<g>
	</g>
	<g>
	</g>
	<g>
	</g>
	<g>
	</g>
	<g>
	</g>
	<g>
	</g>
	<g>
	</g>
	<g>
	</g>
	<g>
	</g>
	<g>
	</g>
	<g>
	</g>
	<g>
	</g>
	<g>
	</g>
	<g>
	</g>
	<g>
	</g>
	<g>
	</g>
	<g>
	</g>
	<g>
	</g>
	<g>
	</g>
	<g>
	</g>
	<g>
	</g>
	<g>
	</g>
	<g>
	</g>
</g>
<g>
	<g>
	</g>
	<g>
	</g>
	<g>
	</g>
	<g>
	</g>
	<g>
	</g>
	<g>
	</g>
	<g>
	</g>
	<g>
	</g>
	<g>
	</g>
	<g>
	</g>
	<g>
	</g>
	<g>
	</g>
	<g>
	</g>
	<g>
	</g>
	<g>
	</g>
	<g>
	</g>
	<g>
	</g>
	<g>
	</g>
	<g>
	</g>
	<g>
	</g>
	<g>
	</g>
	<g>
	</g>
	<g>
	</g>
	<g>
	</g>
	<g>
	</g>
	<g>
	</g>
	<g>
	</g>
	<g>
	</g>
	<g>
	</g>
	<g>
	</g>
	<g>
	</g>
	<g>
	</g>
	<g>
	</g>
	<g>
	</g>
	<g>
	</g>
	<g>
	</g>
	<g>
	</g>
	<g>
	</g>
	<g>
	</g>
	<g>
	</g>
	<g>
	</g>
	<g>
	</g>
	<g>
	</g>
	<g>
	</g>
	<g>
	</g>
	<g>
	</g>
	<g>
	</g>
	<g>
	</g>
	<g>
	</g>
	<g>
	</g>
	<g>
	</g>
</g>
<path class="st1" d="M-18.4,12.2"/>
<path class="st1" d="M-193.4,223.2"/>
<path class="st1" d="M-175.2,216.7"/>
<path class="st2" d="M48.6,111.5l0.8-0.1c5.6-0.6,10.9-2.7,15.3-6.1l0.9-0.7c2.6-2,4.8-4.3,6.7-6.9l1-1.4l-0.8,4
	c-1,5.2-3.3,10.1-6.8,14.2l0,0c-1.6,2-4.2,3-6.8,2.7l-5.9-0.6c-4.6-0.5-9-1.9-12.9-4.1l0,0L48.6,111.5z"/>
<path class="st2" d="M17.7,104l1-0.2c3.7-0.7,7.1-2.2,9.8-4.4h0c2.3-1.9,4.2-4,5.7-6.3l0-0.1l0,0.2c-0.5,4.7-2.4,9.3-5.5,13.4h0
	c-0.1,0.1-0.2,0.2-0.4,0.2h-8.8c-2.2,0-4.3-0.4-6.3-1.1l-1.6-0.6L17.7,104z"/>
<path class="st2" d="M128.1,88.4v11c0.1,1.2,1,2.4,2.4,3l0,0c3.9,1.8,8.9,1.7,12.7-0.1l10.1-5l-11,0.1c-3.5,0-7-0.6-10.1-1.8
	c0,0,0,0,0,0L128.1,88.4z"/>
<path class="st2" d="M167.7,73.7l0.2,2.4c0.1,1.2,0.9,2.3,2.3,3.3l0,0c1.3,0.9,3.9,1.3,6.1,0.9l0,0l4.8-2.9l0,0
	c-5.5-0.6-10-0.9-12.6-3L167.7,73.7z"/>
<path class="st2" d="M68.4,98.9L67,98.4c-4.9,1-9.6,2.2-14.3,3.7l-9.2,3h0c4.4,2.3,9,2.5,12.8,0.6L68.4,98.9z"/>
<path class="st2" d="M133.7,91.1l0.8-0.3c2.9,0.5,5.7,1.1,8.5,1.9l5.5,1.6l0,0c-2.5,1.3-5.1,1.5-7.4,0.5L133.7,91.1z"/>
<polygon class="st2" points="118.2,90.9 116.8,96.4 115.7,107.5 116,118.9 117.5,106.7 119.1,90.9 "/>
<polygon class="st2" points="81,99.2 82.8,104.6 84,115.3 82.8,126.2 81.3,114.4 79.8,99 "/>
<path class="st3" d="M85.5,4.9L7,50.5c-2.2,1.3-1.8,4.6,0.7,5.2l88.1,23.3c0.7,0.2,1.5,0.1,2.2-0.3l78.5-46c2.2-1.3,1.7-4.6-0.7-5.2
	L87.6,4.6C86.9,4.4,86.1,4.5,85.5,4.9z"/>
<path class="st4" d="M127.7,116.3"/>
<g>
	<polygon class="st5" points="86.6,9.9 77.5,15.2 87.7,17.9 96.8,12.6 	"/>
	<polygon class="st5" points="87.7,17.9 78.6,23.2 88.8,25.9 97.9,20.6 	"/>
	<polygon class="st5" points="107,15.3 97.9,20.6 108.1,23.3 117.2,18 	"/>
	<polygon class="st5" points="108.1,23.3 99,28.6 109.2,31.3 118.3,25.9 	"/>
	<polygon class="st5" points="127.4,20.7 118.3,25.9 128.5,28.6 137.6,23.3 	"/>
	<polygon class="st5" points="128.5,28.6 119.4,33.9 129.6,36.6 138.7,31.3 	"/>
	<polygon class="st5" points="147.8,26 138.7,31.3 148.9,34 158,28.7 	"/>
	<polygon class="st5" points="148.9,34 139.8,39.3 150,42 159.1,36.7 	"/>
	<polygon class="st5" points="68.4,20.6 59.3,25.9 69.5,28.6 78.6,23.2 	"/>
	<polygon class="st5" points="69.5,28.6 60.4,33.8 70.7,36.5 79.7,31.2 	"/>
	<polygon class="st5" points="88.8,25.9 79.7,31.2 89.9,33.9 99,28.6 	"/>
	<polygon class="st5" points="89.9,33.9 80.8,39.2 91.1,41.9 100.1,36.6 	"/>
	<polygon class="st5" points="109.2,31.3 100.1,36.6 110.3,39.3 119.4,33.9 	"/>
	<polygon class="st5" points="110.3,39.3 101.3,44.6 111.5,47.3 120.5,41.9 	"/>
	<polygon class="st5" points="129.6,36.6 120.5,41.9 130.8,44.6 139.8,39.3 	"/>
	<polygon class="st5" points="130.8,44.6 121.7,49.9 131.9,52.6 140.9,47.3 	"/>
	<polygon class="st5" points="50.2,31.2 41.2,36.5 51.4,39.2 60.4,33.8 	"/>
	<polygon class="st5" points="51.4,39.2 42.3,44.5 52.5,47.2 61.6,41.8 	"/>
	<polygon class="st5" points="70.7,36.5 61.6,41.8 71.8,44.5 80.9,39.2 	"/>
	<polygon class="st5" points="71.8,44.5 62.7,49.8 72.9,52.5 82,47.2 	"/>
	<polygon class="st5" points="91.1,41.9 82,47.2 92.2,49.9 101.3,44.6 	"/>
	<polygon class="st5" points="92.2,49.9 83.1,55.2 93.3,57.9 102.4,52.5 	"/>
	<polygon class="st5" points="111.5,47.3 102.4,52.5 112.6,55.2 121.7,49.9 	"/>
	<polygon class="st5" points="112.6,55.2 103.5,60.5 113.7,63.2 122.8,57.9 	"/>
	<polygon class="st5" points="32.1,41.8 23,47.1 33.2,49.8 42.3,44.5 	"/>
	<polygon class="st5" points="33.2,49.8 24.1,55.1 34.3,57.8 43.4,52.4 	"/>
	<polygon class="st5" points="52.5,47.2 43.4,52.4 53.6,55.2 62.7,49.8 	"/>
	<polygon class="st5" points="53.6,55.2 44.5,60.4 54.7,63.1 63.8,57.8 	"/>
	<polygon class="st5" points="72.9,52.5 63.8,57.8 74,60.5 83.1,55.2 	"/>
	<polygon class="st5" points="74,60.5 64.9,65.8 75.1,68.5 84.2,63.2 	"/>
	<polygon class="st5" points="93.3,57.9 84.2,63.2 94.4,65.9 103.5,60.5 	"/>
	<polygon class="st5" points="94.4,65.9 85.3,71.2 95.5,73.9 104.6,68.5 	"/>
</g>
<polygon class="st6" points="87.3,9.9 14.7,52.1 96.1,73.7 168.6,31.1 "/>
<path class="st4" d="M27.2,110.9l3.5-2.3c5.1-3.5,4.7-10.5,6.5-16.4l0.8-4.5L37.3,103c-0.1,0.8-0.2,1.6-0.3,2.4l-0.2,8.4"/>
<path class="st4" d="M62.9,123.3l4.6,1.3c4.9-5.4,5.8-10.8,6.9-18l1.6-11l-0.8,19.7c0,0.9,0.1,1.7,0.3,2.6l1.7,9.3"/>
<path class="st4" d="M118.9,119.6l0.8-13.6c0.1-1.6,0.7-4.4,0.8-6.1l1.5-15.1l0.6,12.5c0.6,3.3,1.2,7.7,3,12.9l1.2,3.6"/>
<path class="st4" d="M162.4,93.7l0.8-8.7c0.2-2.4,0.3-4.8,0.3-7.2l0-9.9l1.8,9.9c0.4,2.2,1,4.4,1.7,6.5l1.6,4.1"/>
</svg>
