<?xml version="1.0" encoding="utf-8"?>
<!-- Generator: Adobe Illustrator 21.1.0, SVG Export Plug-In . SVG Version: 6.00 Build 0)  -->
<svg version="1.1" id="Слой_1" xmlns="http://www.w3.org/2000/svg" xmlns:xlink="http://www.w3.org/1999/xlink" x="0px" y="0px"
	 viewBox="0 0 191.1 140.5" style="enable-background:new 0 0 191.1 140.5;" xml:space="preserve">
<style type="text/css">
	.st0{fill:#C67B22;stroke:#231F20;stroke-linecap:round;stroke-miterlimit:10;}
	.st1{fill:none;stroke:#231F20;stroke-linecap:round;stroke-miterlimit:10;}
	.st2{fill:#C1B9B9;stroke:#231F20;stroke-linecap:round;stroke-miterlimit:10;}
	.st3{fill:#231F20;stroke:#231F20;stroke-linecap:round;stroke-miterlimit:10;}
	.st4{fill:#231F20;}
	.st5{fill:none;stroke:#231F20;stroke-miterlimit:10;}
	.st6{fill:#A8A7A7;}
</style>
<g>
	<g>
	</g>
	<g>
	</g>
	<g>
	</g>
	<g>
	</g>
	<g>
	</g>
	<g>
	</g>
	<g>
	</g>
	<g>
	</g>
	<g>
	</g>
	<g>
	</g>
	<g>
	</g>
	<g>
	</g>
	<g>
	</g>
	<g>
	</g>
	<g>
	</g>
	<g>
	</g>
	<g>
	</g>
	<g>
	</g>
	<g>
	</g>
	<g>
	</g>
	<g>
	</g>
	<g>
	</g>
	<g>
	</g>
	<g>
	</g>
	<g>
	</g>
	<g>
	</g>
	<g>
	</g>
	<g>
	</g>
	<g>
	</g>
	<g>
	</g>
	<g>
	</g>
	<g>
	</g>
	<g>
	</g>
	<g>
	</g>
	<g>
	</g>
	<g>
	</g>
	<g>
	</g>
	<g>
	</g>
	<g>
	</g>
	<g>
	</g>
	<g>
	</g>
	<g>
	</g>
	<g>
	</g>
	<g>
	</g>
	<g>
	</g>
	<g>
	</g>
	<g>
	</g>
	<g>
	</g>
	<g>
	</g>
	<g>
	</g>
	<g>
	</g>
</g>
<g>
	<g>
	</g>
	<g>
	</g>
	<g>
	</g>
	<g>
	</g>
	<g>
	</g>
	<g>
	</g>
	<g>
	</g>
	<g>
	</g>
	<g>
	</g>
	<g>
	</g>
	<g>
	</g>
	<g>
	</g>
	<g>
	</g>
	<g>
	</g>
	<g>
	</g>
	<g>
	</g>
	<g>
	</g>
	<g>
	</g>
	<g>
	</g>
	<g>
	</g>
	<g>
	</g>
	<g>
	</g>
	<g>
	</g>
	<g>
	</g>
	<g>
	</g>
	<g>
	</g>
	<g>
	</g>
	<g>
	</g>
	<g>
	</g>
	<g>
	</g>
	<g>
	</g>
	<g>
	</g>
	<g>
	</g>
	<g>
	</g>
	<g>
	</g>
	<g>
	</g>
	<g>
	</g>
	<g>
	</g>
	<g>
	</g>
	<g>
	</g>
	<g>
	</g>
	<g>
	</g>
	<g>
	</g>
	<g>
	</g>
	<g>
	</g>
	<g>
	</g>
	<g>
	</g>
	<g>
	</g>
	<g>
	</g>
	<g>
	</g>
	<g>
	</g>
</g>
<path class="st0" d="M88.5,3L8,53.9c-4.2,2.5-3.3,8.8,1.4,10l88.2,24.9c1.4,0.4,2.9,0.2,4.2-0.6L180.9,37c4.2-2.5,3.3-8.8-1.4-10
	L92.7,2.4C91.2,2,89.7,2.3,88.5,3z"/>
<path class="st1" d="M183.6,33.2"/>
<path class="st2" d="M5.4,59.5L4,79.8L2.6,99c-0.1,6.3,4.1,12.6,10.4,13.3l4.7,0.6c5.5,0.6,11.2,2.2,15.8,5.1l3.6,2.1
	c3.5,2.2,9.4,3.4,13.3,4.7l19.7,5.3c1.1,0.3,2.1,0.6,3.1,0.9l20.6,5.1c3.4,0.9,15.3,0.5,18.9-1c10.8-4.5,9.5-3.9,15.6-9.8l7.8-4.6
	c10.4-2.1,19.6-13.9,28.7-20.1l4.4-3.6l1.8-1.6l7.8-5.9l4.4-3.9v0c4.2-3.7,6.3-9.3,5.5-14.9v0c-2.4-11.2-4-22.5-4.9-33.9l-0.3-3.8
	l-0.5,1.3l-0.3,0.6l-0.7,0.9l-80.4,52.3l-0.8,0.4L99.2,89L97,88.7l-88.3-25l-1.4-0.8l-1.1-1.1L5.4,59.5z"/>
<path class="st1" d="M99.8,89.4"/>
<path class="st3" d="M25.8,114.6l2.8-1.9c5.1-3.5,4.6-10.1,6.3-16l0.8-4.5L35,107.5c-0.1,0.8-0.2,1.6-0.3,2.4l-0.2,8.8"/>
<path class="st3" d="M73.2,131.1l4.6,1.3c4.9-5.4,5.8-10.8,6.9-18l1.6-11l-0.8,19.7c0,0.9,0.1,1.7,0.3,2.6l1.7,9.3"/>
<path class="st3" d="M128.3,125.4l0.8-12.4c0.1-1.6,0.7-4.4,0.8-6.1l1.5-15.1l0.6,12.5c0.6,3.3,1.2,7.7,3,12.9l1.2,3.6"/>
<path class="st3" d="M164.9,100.7l0.8-8.7c0.2-2.4,0.3-4.8,0.3-7.2l0-9.9l1.8,9.9c0.4,2.2,1,4.4,1.7,6.5l1.6,4.1"/>
<path class="st1" d="M17.8,62.1"/>
<path class="st1" d="M-2.8,47.9"/>
<path class="st1" d="M68.4,1.4"/>
<path class="st1" d="M-14.6,43.1"/>
<path class="st1" d="M63.7-5"/>
<path class="st1" d="M-24,36.9"/>
<path class="st1" d="M54.1-11.1"/>
<path class="st1" d="M50,156.3"/>
<path class="st1" d="M46.6-15.1"/>
<path class="st1" d="M132.8,81.7"/>
<path class="st1" d="M188.7,30.1"/>
<path class="st1" d="M122,85.3"/>
<path class="st1" d="M194,37.8"/>
<path class="st1" d="M105.5,2.1"/>
<path class="st1" d="M190.8,24.1"/>
<path class="st1" d="M111.3-5.7"/>
<path class="st1" d="M202.4,16"/>
<path class="st1" d="M26.8,219"/>
<path class="st1" d="M36.5,117.3"/>
<path class="st1" d="M45,212.5"/>
<path class="st1" d="M54.7,110.9"/>
<path class="st1" d="M-19.4,81.1"/>
<path class="st1" d="M71.3,103"/>
<path class="st1" d="M49.3,76.7"/>
<path class="st1" d="M123.8,94.5"/>
<path class="st1" d="M3.5,67.4"/>
<path class="st1" d="M87.5,90.9"/>
<path class="st1" d="M17.8,62.1"/>
<path class="st1" d="M103.7,11.5"/>
<path class="st1" d="M40,67.7"/>
<path class="st1" d="M125.9,17.4"/>
<path class="st1" d="M28.7,64.6"/>
<path class="st1" d="M114.5,14.2"/>
<path class="st1" d="M51.1,70.7"/>
<path class="st1" d="M137.2,20.1"/>
<path class="st1" d="M80.1,78.5"/>
<path class="st1" d="M166.3,27.9"/>
<path class="st1" d="M64.4,74.9"/>
<path class="st1" d="M150.6,24.2"/>
<path class="st1" d="M93.5,82.2"/>
<path class="st1" d="M177.5,30.7"/>
<path class="st1" d="M110.1,12.7"/>
<path class="st1" d="M15.6,61"/>
<path class="st1" d="M101.7,10.4"/>
<polygon class="st4" points="92.7,16.4 82.2,13.3 92.2,6.9 102.9,10 "/>
<polygon class="st4" points="93.1,25.9 82.6,22.8 92.7,16.4 103.4,19.5 "/>
<polygon class="st4" points="113.9,22.6 103.4,19.5 113.4,13.1 124.1,16.2 "/>
<polygon class="st4" points="114.3,32.1 103.8,29 113.9,22.6 124.6,25.7 "/>
<polygon class="st4" points="135.1,28.8 124.6,25.7 134.6,19.3 145.3,22.5 "/>
<polygon class="st4" points="135.5,38.4 125,35.3 135.1,28.8 145.8,32 "/>
<polygon class="st4" points="156.3,35.1 145.8,32 155.8,25.6 166.5,28.7 "/>
<polygon class="st4" points="156.7,44.6 146.2,41.5 156.3,35.1 167,38.2 "/>
<polygon class="st4" points="72.4,29.2 61.9,26.1 71.9,19.7 82.6,22.8 "/>
<polygon class="st4" points="72.9,38.7 62.4,35.6 72.4,29.2 83.1,32.3 "/>
<polygon class="st4" points="93.6,35.4 83.1,32.3 93.1,25.9 103.8,29 "/>
<polygon class="st4" points="94.1,45 83.6,41.8 93.6,35.4 104.3,38.6 "/>
<polygon class="st4" points="114.8,41.7 104.3,38.6 114.3,32.1 125,35.3 "/>
<polygon class="st4" points="115.3,51.2 104.8,48.1 114.8,41.7 125.5,44.8 "/>
<polygon class="st4" points="136,47.9 125.5,44.8 135.5,38.4 146.2,41.5 "/>
<polygon class="st4" points="136.5,57.4 126,54.3 136,47.9 146.7,51 "/>
<polygon class="st4" points="52.2,42 41.6,38.9 51.7,32.5 62.4,35.6 "/>
<polygon class="st4" points="52.6,51.5 42.1,48.4 52.2,42 62.8,45.1 "/>
<polygon class="st4" points="73.4,48.2 62.8,45.1 72.9,38.7 83.6,41.8 "/>
<polygon class="st4" points="73.8,57.8 63.3,54.7 73.4,48.2 84,51.4 "/>
<polygon class="st4" points="94.6,54.5 84,51.4 94.1,45 104.8,48.1 "/>
<polygon class="st4" points="95,64 84.5,60.9 94.6,54.5 105.2,57.6 "/>
<polygon class="st4" points="115.8,60.7 105.2,57.6 115.3,51.2 126,54.3 "/>
<polygon class="st4" points="116.7,70.8 105.7,67.1 115.8,60.7 127,64.1 "/>
<polygon class="st4" points="31.9,54.8 21.4,51.7 31.4,45.3 42.1,48.4 "/>
<polygon class="st4" points="32.4,64.3 21.9,61.2 31.9,54.8 42.6,57.9 "/>
<polygon class="st4" points="53.1,61.1 42.6,58 52.6,51.5 63.3,54.7 "/>
<polygon class="st4" points="53.6,70.6 43.1,67.5 53.1,61.1 63.8,64.2 "/>
<polygon class="st4" points="74.3,67.3 63.8,64.2 73.8,57.8 84.5,60.9 "/>
<polygon class="st4" points="75.4,76.6 64.9,73.5 74.3,67.3 85,70.4 "/>
<polygon class="st4" points="95.5,73.5 85,70.4 95,64 105.7,67.1 "/>
<polygon class="st5" points="92.2,6.9 11.2,58.1 98.3,82.7 177,31.8 "/>
<polygon class="st4" points="98.5,82.8 86.5,79.3 95.4,73.5 107,77.1 "/>
<path class="st6" d="M54.8,117.2l0.9-0.1c6.5-0.4,12.5-2.2,17.5-5.2l1-0.6c2.9-1.8,5.5-3.9,7.5-6.2l1.2-1.3l-0.8,3.6
	c-1.1,4.8-3.6,9.2-7.5,13l0,0c-1.8,1.8-4.8,2.6-7.8,2.3L60,122c-5.3-0.5-10.4-1.9-15-4.1h0L54.8,117.2z"/>
<path class="st6" d="M15.1,104.3l1-0.2c3.7-0.7,7.1-2.2,9.8-4.4l0,0c2.3-1.9,4.2-4,5.7-6.3l0-0.1l0,0.2c-0.5,4.7-2.4,9.3-5.5,13.4
	l0,0c-0.1,0.1-0.2,0.2-0.4,0.2h-8.8c-2.2,0-4.3-0.4-6.3-1.1L9,105.4L15.1,104.3z"/>
<path class="st6" d="M136.2,91.9v11c0.1,1.2,1,2.4,2.4,3l0,0c3.9,1.8,8.9,1.7,12.7-0.1l10.1-5l-11,0.1c-3.5,0-7-0.6-10.1-1.8
	c0,0,0,0,0,0L136.2,91.9z"/>
<path class="st6" d="M169.6,76.6l0.2,3.4c0.1,1.6,0.9,3.2,2.4,4.5l0,0c1.3,1.2,4.1,1.7,6.4,1.2v0l5-2.2h0c-5.7-0.8-10.6-3-13.2-6
	L169.6,76.6z"/>
<path class="st6" d="M73.6,101.4l-1.4-0.4c-5,1.1-10,2.5-14.8,4.2l-9.5,3.2h0c4.4,2,9.1,2,13.1,0L73.6,101.4z"/>
<path class="st6" d="M130.8,82.7l1.5-0.3c5.8,1.2,11.5,2.7,17.2,4.4l11.2,3.3h0c-4.5,1.5-9.8,1.2-14.6-0.7L130.8,82.7z"/>
</svg>
