<svg id="Слой_1" data-name="Слой 1" xmlns="http://www.w3.org/2000/svg" viewBox="0 0 203.89 136.53">
  <defs>
    <style>
      .cls-1 {
        fill: none;
      }

      .cls-1, .cls-2 {
        stroke: #231f20;
        stroke-linecap: round;
        stroke-miterlimit: 10;
      }

      .cls-2, .cls-3 {
        fill: #231f20;
      }
    </style>
  </defs>
  <title>ChessBoard</title>
  <path class="cls-1" d="M95.75,4.5,8.11,56.72a5.48,5.48,0,0,0,1.4,10l90.75,24.33a5.48,5.48,0,0,0,4.16-.56l89.14-51.82a5.48,5.48,0,0,0-1.35-10L100,3.91A5.48,5.48,0,0,0,95.75,4.5Z" transform="translate(-2.93 -3.23)"/>
  <path class="cls-1" d="M196.32,34.9l4.45,24.36c1.11,6.08,1.56,4.67,4.2,10.26h0a14.25,14.25,0,0,1,0,12.24h0c-2.44,5.09-6.42,4.64-11.42,7.25L176.18,99l-4.47,3.59c-9.17,6.13-18.38,17.87-28.81,19.94l-7.85,4.54h0c-6.14,5.88-5.54,5.52-16.39,9.94a32.53,32.53,0,0,1-21,1l-17.82-5.47q-1.55-.52-3.13-1l-19.69-5.38c-3.93-1.3-9.81-2.56-13.31-4.76l-3.55-2.16a36.78,36.78,0,0,0-15.36-5.38l-10.58-1.21A12.22,12.22,0,0,1,3.44,100.2L3.9,82.6,5.43,62.28" transform="translate(-2.93 -3.23)"/>
  <path class="cls-1" d="M102.46,91.64" transform="translate(-2.93 -3.23)"/>
  <path class="cls-2" d="M32.72,115.67l2.65-1.77c5.08-3.44,4.6-10.11,6.4-16l.86-4.49-.79,15.33q-.1,1.2-.3,2.39l-.23,8.8" transform="translate(-2.93 -3.23)"/>
  <path class="cls-2" d="M79.89,132.52l4.64,1.29c4.91-5.33,5.85-10.77,6.94-17.93l1.67-11-.9,19.72q.07,1.31.25,2.6l1.71,9.29" transform="translate(-2.93 -3.23)"/>
  <path class="cls-2" d="M135.06,127.06l.81-12.38c.11-1.65.76-4.4.78-6.06l1.56-15.05.51,12.47a77,77,0,0,0,3,12.91l1.2,3.58" transform="translate(-2.93 -3.23)"/>
  <path class="cls-2" d="M171.72,102.59l.85-8.66q.35-3.6.35-7.21V76.85l1.76,9.95a40.51,40.51,0,0,0,1.71,6.5L178,97.38" transform="translate(-2.93 -3.23)"/>
  <g>
    <g>
      <g>
        <g>
          <path class="cls-1" d="M101.33,10.35,14.95,60.57" transform="translate(-2.93 -3.23)"/>
          <path class="cls-1" d="M24.8,63.25" transform="translate(-2.93 -3.23)"/>
          <path class="cls-1" d="M-2.66,50.65" transform="translate(-2.93 -3.23)"/>
          <path class="cls-1" d="M75.72,2.81" transform="translate(-2.93 -3.23)"/>
          <path class="cls-1" d="M-7.45,44.12" transform="translate(-2.93 -3.23)"/>
          <path class="cls-1" d="M71-3.6" transform="translate(-2.93 -3.23)"/>
          <path class="cls-1" d="M-16.89,37.89" transform="translate(-2.93 -3.23)"/>
          <path class="cls-1" d="M61.48-9.72" transform="translate(-2.93 -3.23)"/>
          <path class="cls-1" d="M56.63,157.56" transform="translate(-2.93 -3.23)"/>
          <path class="cls-1" d="M53.94-13.81" transform="translate(-2.93 -3.23)"/>
          <path class="cls-1" d="M139.74,83.34" transform="translate(-2.93 -3.23)"/>
          <path class="cls-1" d="M201.39,31.82" transform="translate(-2.93 -3.23)"/>
          <path class="cls-1" d="M128.92,87" transform="translate(-2.93 -3.23)"/>
          <path class="cls-1" d="M206.68,39.56" transform="translate(-2.93 -3.23)"/>
          <path class="cls-1" d="M187.59,33.08,101.21,83.3" transform="translate(-2.93 -3.23)"/>
        </g>
        <g>
          <path class="cls-1" d="M187.59,33.08,101.33,10.35" transform="translate(-2.93 -3.23)"/>
          <path class="cls-1" d="M112.75,3.71" transform="translate(-2.93 -3.23)"/>
          <path class="cls-1" d="M203.49,25.86" transform="translate(-2.93 -3.23)"/>
          <path class="cls-1" d="M118.63-4.11" transform="translate(-2.93 -3.23)"/>
          <path class="cls-1" d="M209.61,18" transform="translate(-2.93 -3.23)"/>
          <path class="cls-1" d="M33.05,220.21" transform="translate(-2.93 -3.23)"/>
          <path class="cls-1" d="M43.3,118.54" transform="translate(-2.93 -3.23)"/>
          <path class="cls-1" d="M51.37,213.78" transform="translate(-2.93 -3.23)"/>
          <path class="cls-1" d="M61.47,112.2" transform="translate(-2.93 -3.23)"/>
          <path class="cls-1" d="M-12.51,82.13" transform="translate(-2.93 -3.23)"/>
          <path class="cls-1" d="M78.15,104.46" transform="translate(-2.93 -3.23)"/>
          <path class="cls-1" d="M56.28,78" transform="translate(-2.93 -3.23)"/>
          <path class="cls-1" d="M130.67,96.11" transform="translate(-2.93 -3.23)"/>
          <path class="cls-1" d="M3.56,70.19" transform="translate(-2.93 -3.23)"/>
          <path class="cls-1" d="M94.43,92.38" transform="translate(-2.93 -3.23)"/>
          <path class="cls-1" d="M101.21,83.3,14.95,60.57" transform="translate(-2.93 -3.23)"/>
        </g>
        <path class="cls-1" d="M24.8,63.25" transform="translate(-2.93 -3.23)"/>
        <path class="cls-1" d="M111,13" transform="translate(-2.93 -3.23)"/>
        <path class="cls-1" d="M47,69" transform="translate(-2.93 -3.23)"/>
        <path class="cls-1" d="M133.16,19" transform="translate(-2.93 -3.23)"/>
        <path class="cls-1" d="M35.67,65.84" transform="translate(-2.93 -3.23)"/>
        <path class="cls-1" d="M121.7,15.77" transform="translate(-2.93 -3.23)"/>
        <path class="cls-1" d="M58.07,72.06" transform="translate(-2.93 -3.23)"/>
        <path class="cls-1" d="M144.45,21.84" transform="translate(-2.93 -3.23)"/>
        <path class="cls-1" d="M87.07,80" transform="translate(-2.93 -3.23)"/>
        <path class="cls-1" d="M173.45,29.76" transform="translate(-2.93 -3.23)"/>
        <path class="cls-1" d="M71.39,76.24" transform="translate(-2.93 -3.23)"/>
        <path class="cls-1" d="M157.77,26" transform="translate(-2.93 -3.23)"/>
        <path class="cls-1" d="M98.3,82.84" transform="translate(-2.93 -3.23)"/>
        <path class="cls-1" d="M184.68,32.62" transform="translate(-2.93 -3.23)"/>
        <path class="cls-1" d="M101.27,83.47" transform="translate(-2.93 -3.23)"/>
        <path class="cls-1" d="M187.64,33.25" transform="translate(-2.93 -3.23)"/>
      </g>
      <path class="cls-1" d="M154.05,24.63l-86.38,50" transform="translate(-2.93 -3.23)"/>
      <path class="cls-1" d="M111.48,13.69,25.87,63.46" transform="translate(-2.93 -3.23)"/>
      <path class="cls-1" d="M122.76,16,37,66.41" transform="translate(-2.93 -3.23)"/>
      <path class="cls-1" d="M144.22,22.06,58.08,71.92" transform="translate(-2.93 -3.23)"/>
      <path class="cls-1" d="M133.16,19,48.31,69.4" transform="translate(-2.93 -3.23)"/>
      <path class="cls-1" d="M31,64.54" transform="translate(-2.93 -3.23)"/>
      <path class="cls-1" d="M117.35,14.32" transform="translate(-2.93 -3.23)"/>
      <path class="cls-1" d="M165.38,27.28,79,77.5" transform="translate(-2.93 -3.23)"/>
      <path class="cls-1" d="M176,30.7,90.18,80.56" transform="translate(-2.93 -3.23)"/>
      <path class="cls-1" d="M22.59,62.13" transform="translate(-2.93 -3.23)"/>
      <path class="cls-1" d="M109,11.91" transform="translate(-2.93 -3.23)"/>
      <path class="cls-1" d="M134,64.25,48,41.5" transform="translate(-2.93 -3.23)"/>
      <path class="cls-1" d="M176,39.55,90.59,16.76" transform="translate(-2.93 -3.23)"/>
      <path class="cls-1" d="M166.51,45.34l-87-22.25" transform="translate(-2.93 -3.23)"/>
      <path class="cls-1" d="M144.82,57.82,58.64,35.11" transform="translate(-2.93 -3.23)"/>
      <path class="cls-1" d="M155.56,51.69l-86.06-23" transform="translate(-2.93 -3.23)"/>
      <path class="cls-1" d="M123.89,70.12,37.68,47.76" transform="translate(-2.93 -3.23)"/>
      <path class="cls-1" d="M112.13,76.74,25.84,54" transform="translate(-2.93 -3.23)"/>
    </g>
    <polygon class="cls-3" points="109.19 10.09 98.82 16.31 109.03 19.03 120.02 12.66 109.19 10.09"/>
    <polygon class="cls-3" points="66.66 25.93 56.29 32.15 66.5 34.87 77.49 28.5 66.66 25.93"/>
    <polygon class="cls-3" points="44.98 38.41 34.61 44.63 44.83 47.35 55.81 40.98 44.98 38.41"/>
    <polygon class="cls-3" points="45.26 56.84 34.89 63.06 45.1 65.78 56.09 59.42 45.26 56.84"/>
    <polygon class="cls-3" points="130.56 15.79 120.19 22 130.4 24.72 141.39 18.36 130.56 15.79"/>
    <polygon class="cls-3" points="108.58 19.66 98.21 25.88 108.42 28.59 119.41 22.23 108.58 19.66"/>
    <polygon class="cls-3" points="109.27 36.98 98.9 43.19 109.11 45.91 120.1 39.55 109.27 36.98"/>
    <polygon class="cls-3" points="86.93 49.45 76.56 55.67 86.77 58.39 97.76 52.02 86.93 49.45"/>
    <polygon class="cls-3" points="88.28 40.89 77.91 47.1 88.12 49.82 99.11 43.46 88.28 40.89"/>
    <polygon class="cls-3" points="109.42 28.38 99.04 34.6 109.26 37.31 120.24 30.95 109.42 28.38"/>
    <polygon class="cls-3" points="65.81 62.3 55.44 68.52 65.65 71.23 76.64 64.87 65.81 62.3"/>
    <polygon class="cls-3" points="66.99 53.12 56.62 59.34 66.83 62.05 77.82 55.69 66.99 53.12"/>
    <polygon class="cls-3" points="87.18 22.72 76.81 28.94 87.02 31.66 98.01 25.29 87.18 22.72"/>
    <polygon class="cls-3" points="23.02 51.27 12.65 57.49 22.86 60.2 33.85 53.84 23.02 51.27"/>
    <polygon class="cls-3" points="45.25 47.67 34.88 53.88 45.09 56.6 56.08 50.24 45.25 47.67"/>
    <polygon class="cls-3" points="66.82 44.11 56.45 50.32 66.66 53.04 77.64 46.68 66.82 44.11"/>
    <polygon class="cls-3" points="66.66 34.87 56.29 41.08 66.5 43.8 77.49 37.44 66.66 34.87"/>
    <polygon class="cls-3" points="87.42 58.69 77.05 64.9 87.27 67.62 98.25 61.26 87.42 58.69"/>
    <polygon class="cls-3" points="88.59 31.59 78.22 37.81 88.43 40.53 99.42 34.16 88.59 31.59"/>
    <polygon class="cls-3" points="87.94 13.69 77.57 19.9 87.78 22.62 98.77 16.26 87.94 13.69"/>
    <polygon class="cls-3" points="130.39 24.97 120.02 31.18 130.23 33.9 141.22 27.54 130.39 24.97"/>
    <polygon class="cls-3" points="130.14 33.74 119.77 39.96 129.98 42.67 140.97 36.31 130.14 33.74"/>
    <polygon class="cls-3" points="108.94 46.14 98.57 52.35 108.79 55.07 119.77 48.71 108.94 46.14"/>
    <polygon class="cls-3" points="151.68 21.44 141.31 27.65 151.52 30.37 162.51 24.01 151.68 21.44"/>
    <polygon class="cls-3" points="151.78 30.4 141.41 36.62 151.62 39.33 162.61 32.97 151.78 30.4"/>
    <polygon class="cls-3" points="173.95 27.39 163.58 33.6 173.79 36.32 184.77 29.96 173.95 27.39"/>
    <polygon class="cls-3" points="152.79 39.27 142.42 45.48 152.64 48.2 163.62 41.84 152.79 39.27"/>
    <polygon class="cls-3" points="131.6 51.82 121.23 58.04 131.19 60.78 142.18 54.42 131.6 51.82"/>
    <polygon class="cls-3" points="130.56 42.78 120.19 49 130.4 51.72 141.39 45.35 130.56 42.78"/>
    <polygon class="cls-3" points="110.03 64.34 99.66 70.55 109.88 73.27 120.86 66.91 110.03 64.34"/>
    <polygon class="cls-3" points="109.51 55.24 99.14 61.45 109.35 64.17 120.34 57.81 109.51 55.24"/>
    <polygon class="cls-3" points="87.18 67.95 76.81 74.17 87.02 76.88 98 70.52 87.18 67.95"/>
  </g>
</svg>
